<svg xmlns="http://www.w3.org/2000/svg" xmlns:xlink="http://www.w3.org/1999/xlink" width="31" zoomAndPan="magnify" viewBox="0 0 23.25 23.999999" height="32" preserveAspectRatio="xMidYMid meet" version="1.0"><defs><clipPath id="f7b8a7fc89"><path d="M 22 11 L 22.523438 11 L 22.523438 12 L 22 12 Z M 22 11 " clip-rule="nonzero"/></clipPath><clipPath id="0301ddb262"><path d="M 22 9 L 22.523438 9 L 22.523438 11 L 22 11 Z M 22 9 " clip-rule="nonzero"/></clipPath><clipPath id="db4c78a5ca"><path d="M 21 8 L 22.523438 8 L 22.523438 10 L 21 10 Z M 21 8 " clip-rule="nonzero"/></clipPath><clipPath id="4780fdd2db"><path d="M 12 0.375 L 13 0.375 L 13 1 L 12 1 Z M 12 0.375 " clip-rule="nonzero"/></clipPath><clipPath id="794752ce56"><path d="M 12 0.375 L 13 0.375 L 13 1 L 12 1 Z M 12 0.375 " clip-rule="nonzero"/></clipPath><clipPath id="2bd089bd77"><path d="M 22 13 L 22.523438 13 L 22.523438 14 L 22 14 Z M 22 13 " clip-rule="nonzero"/></clipPath><clipPath id="557da947ba"><path d="M 10 0.375 L 11 0.375 L 11 1 L 10 1 Z M 10 0.375 " clip-rule="nonzero"/></clipPath><clipPath id="09c54f9026"><path d="M 0 0.375 L 22.523438 0.375 L 22.523438 23.039062 L 0 23.039062 Z M 0 0.375 " clip-rule="nonzero"/></clipPath><clipPath id="5d84ec7258"><path d="M 13 0.375 L 14 0.375 L 14 1 L 13 1 Z M 13 0.375 " clip-rule="nonzero"/></clipPath><clipPath id="7a58e7fc30"><path d="M 8 0.375 L 9 0.375 L 9 2 L 8 2 Z M 8 0.375 " clip-rule="nonzero"/></clipPath><clipPath id="c5beba43f8"><path d="M 22 12 L 22.523438 12 L 22.523438 13 L 22 13 Z M 22 12 " clip-rule="nonzero"/></clipPath><clipPath id="28826a5a5d"><path d="M 22 11 L 22.523438 11 L 22.523438 12 L 22 12 Z M 22 11 " clip-rule="nonzero"/></clipPath><clipPath id="fdc10a145e"><path d="M 6.171875 4.222656 L 16 4.222656 L 16 19 L 6.171875 19 Z M 6.171875 4.222656 " clip-rule="nonzero"/></clipPath></defs><g clip-path="url(#f7b8a7fc89)"><path fill="#231f20" d="M 22.605469 11.6875 C 22.605469 11.792969 22.65625 11.753906 22.664062 11.773438 C 22.648438 11.597656 22.589844 11.695312 22.605469 11.6875 Z M 22.605469 11.6875 " fill-opacity="1" fill-rule="nonzero"/></g><g clip-path="url(#0301ddb262)"><path fill="#231f20" d="M 22.339844 9.984375 L 22.367188 10.011719 L 22.265625 9.773438 Z M 22.339844 9.984375 " fill-opacity="1" fill-rule="nonzero"/></g><g clip-path="url(#db4c78a5ca)"><path fill="#231f20" d="M 21.972656 8.425781 C 21.921875 8.597656 22.152344 8.976562 22.179688 9.265625 L 22.167969 9.316406 L 22.269531 9.425781 C 22.222656 9.253906 22.167969 9.066406 22.109375 8.890625 C 22.050781 8.738281 22.007812 8.585938 21.972656 8.425781 Z M 21.972656 8.425781 " fill-opacity="1" fill-rule="nonzero"/></g><path fill="#231f20" d="M 21.867188 7.554688 C 21.851562 7.617188 21.769531 7.390625 21.929688 7.746094 C 21.929688 7.726562 21.929688 7.71875 21.925781 7.707031 C 21.914062 7.675781 21.894531 7.628906 21.867188 7.554688 Z M 21.867188 7.554688 " fill-opacity="1" fill-rule="nonzero"/><path fill="#231f20" d="M 21.925781 7.707031 C 21.992188 7.867188 21.914062 7.59375 21.925781 7.707031 Z M 21.925781 7.707031 " fill-opacity="1" fill-rule="nonzero"/><path fill="#231f20" d="M 21.59375 6.988281 L 21.71875 7.179688 C 21.71875 7.128906 21.636719 6.941406 21.683594 7.007812 C 21.570312 6.796875 21.574219 6.851562 21.59375 6.988281 Z M 21.59375 6.988281 " fill-opacity="1" fill-rule="nonzero"/><path fill="#231f20" d="M 21.445312 6.824219 C 21.464844 6.855469 21.488281 6.886719 21.507812 6.921875 C 21.507812 6.898438 21.496094 6.867188 21.445312 6.824219 Z M 21.445312 6.824219 " fill-opacity="1" fill-rule="nonzero"/><path fill="#231f20" d="M 21.636719 7.136719 L 21.507812 6.921875 C 21.507812 6.957031 21.480469 6.972656 21.5625 7.019531 C 21.53125 7.011719 21.574219 7.046875 21.636719 7.136719 Z M 21.636719 7.136719 " fill-opacity="1" fill-rule="nonzero"/><path fill="#231f20" d="M 21.679688 7.269531 C 21.714844 7.390625 21.761719 7.546875 21.648438 7.355469 C 21.734375 7.546875 21.785156 7.628906 21.792969 7.605469 C 21.796875 7.570312 21.789062 7.535156 21.777344 7.503906 C 21.75 7.421875 21.71875 7.34375 21.679688 7.269531 Z M 21.679688 7.269531 " fill-opacity="1" fill-rule="nonzero"/><path fill="#231f20" d="M 21.851562 8.382812 C 21.863281 8.4375 21.871094 8.492188 21.878906 8.546875 L 21.945312 8.675781 C 21.925781 8.617188 21.910156 8.558594 21.898438 8.496094 C 21.882812 8.425781 21.867188 8.371094 21.851562 8.382812 Z M 21.851562 8.382812 " fill-opacity="1" fill-rule="nonzero"/><path fill="#231f20" d="M 20.960938 5.726562 C 20.9375 5.726562 20.960938 5.820312 20.945312 5.847656 C 20.984375 5.886719 21.015625 5.933594 21.050781 5.976562 C 21.023438 5.894531 20.941406 5.753906 20.960938 5.726562 Z M 20.960938 5.726562 " fill-opacity="1" fill-rule="nonzero"/><path fill="#231f20" d="M 20.945312 5.847656 L 20.78125 5.65625 C 20.902344 5.84375 20.933594 5.871094 20.945312 5.847656 Z M 20.945312 5.847656 " fill-opacity="1" fill-rule="nonzero"/><path fill="#231f20" d="M 21.335938 6.832031 C 21.421875 6.941406 21.492188 7.054688 21.570312 7.167969 C 21.484375 7.03125 21.398438 6.894531 21.296875 6.761719 Z M 21.335938 6.832031 " fill-opacity="1" fill-rule="nonzero"/><path fill="#231f20" d="M 20.417969 4.9375 C 20.460938 4.964844 20.5 4.996094 20.539062 5.023438 L 20.4375 4.9375 L 20.332031 4.859375 Z M 20.417969 4.9375 " fill-opacity="1" fill-rule="nonzero"/><path fill="#231f20" d="M 20.015625 4.449219 C 20.113281 4.503906 19.96875 4.296875 20.058594 4.367188 C 19.953125 4.257812 19.835938 4.15625 19.707031 4.070312 C 19.828125 4.179688 19.933594 4.304688 20.015625 4.449219 Z M 20.015625 4.449219 " fill-opacity="1" fill-rule="nonzero"/><path fill="#231f20" d="M 19.519531 3.9375 C 19.574219 3.984375 19.636719 4.023438 19.707031 4.070312 C 19.648438 4.019531 19.585938 3.976562 19.519531 3.9375 Z M 19.519531 3.9375 " fill-opacity="1" fill-rule="nonzero"/><path fill="#231f20" d="M 20.558594 5.300781 C 20.554688 5.230469 20.53125 5.164062 20.488281 5.109375 L 20.5 5.21875 Z M 20.558594 5.300781 " fill-opacity="1" fill-rule="nonzero"/><path fill="#231f20" d="M 20.496094 5.222656 L 20.375 5.050781 Z M 20.496094 5.222656 " fill-opacity="1" fill-rule="nonzero"/><path fill="#231f20" d="M 20.566406 5.320312 L 20.554688 5.300781 C 20.558594 5.308594 20.558594 5.316406 20.566406 5.320312 Z M 20.566406 5.320312 " fill-opacity="1" fill-rule="nonzero"/><path fill="#231f20" d="M 21.074219 6.238281 C 20.976562 6.128906 20.796875 5.886719 20.902344 6.160156 C 20.984375 6.230469 20.921875 6.074219 21.074219 6.238281 Z M 21.074219 6.238281 " fill-opacity="1" fill-rule="nonzero"/><path fill="#231f20" d="M 20.582031 5.457031 C 20.628906 5.53125 20.667969 5.609375 20.714844 5.683594 C 20.722656 5.671875 20.714844 5.621094 20.769531 5.671875 C 20.703125 5.601562 20.644531 5.527344 20.582031 5.457031 Z M 20.582031 5.457031 " fill-opacity="1" fill-rule="nonzero"/><path fill="#231f20" d="M 20.492188 5.363281 L 20.582031 5.457031 L 20.527344 5.375 Z M 20.492188 5.363281 " fill-opacity="1" fill-rule="nonzero"/><path fill="#231f20" d="M 19.792969 4.308594 C 19.746094 4.273438 19.699219 4.230469 19.65625 4.1875 L 19.515625 4.046875 C 19.613281 4.164062 19.710938 4.285156 19.808594 4.398438 C 19.835938 4.394531 19.902344 4.429688 19.792969 4.308594 Z M 19.792969 4.308594 " fill-opacity="1" fill-rule="nonzero"/><path fill="#231f20" d="M 20.144531 4.746094 L 20.125 4.730469 C 20.132812 4.742188 20.136719 4.753906 20.144531 4.746094 Z M 20.144531 4.746094 " fill-opacity="1" fill-rule="nonzero"/><path fill="#231f20" d="M 18.503906 3.097656 L 18.511719 3.117188 L 18.523438 3.117188 Z M 18.503906 3.097656 " fill-opacity="1" fill-rule="nonzero"/><path fill="#231f20" d="M 19.816406 4.421875 C 19.863281 4.488281 19.921875 4.546875 19.988281 4.589844 C 19.929688 4.53125 19.867188 4.464844 19.804688 4.394531 C 19.796875 4.394531 19.789062 4.394531 19.816406 4.421875 Z M 19.816406 4.421875 " fill-opacity="1" fill-rule="nonzero"/><path fill="#231f20" d="M 19.230469 3.679688 L 19.351562 3.839844 C 19.324219 3.785156 19.261719 3.683594 19.230469 3.679688 Z M 19.230469 3.679688 " fill-opacity="1" fill-rule="nonzero"/><path fill="#231f20" d="M 20.113281 4.691406 L 20.125 4.703125 C 20.113281 4.664062 20.109375 4.671875 20.113281 4.691406 Z M 20.113281 4.691406 " fill-opacity="1" fill-rule="nonzero"/><path fill="#231f20" d="M 20.113281 4.691406 C 20.074219 4.65625 20.035156 4.621094 19.992188 4.59375 C 20.039062 4.644531 20.078125 4.691406 20.125 4.730469 C 20.121094 4.714844 20.117188 4.703125 20.113281 4.691406 Z M 20.113281 4.691406 " fill-opacity="1" fill-rule="nonzero"/><path fill="#231f20" d="M 17.953125 3.113281 C 17.976562 3.101562 18.054688 3.128906 18.144531 3.1875 C 18.195312 3.21875 18.242188 3.253906 18.289062 3.292969 C 18.335938 3.335938 18.378906 3.382812 18.417969 3.433594 C 18.628906 3.566406 18.621094 3.335938 18.511719 3.117188 C 18.492188 3.132812 18.480469 3.144531 18.253906 3.007812 C 18.3125 3.082031 18.652344 3.425781 18.457031 3.316406 C 18.378906 3.265625 18.304688 3.203125 18.238281 3.132812 C 18.207031 3.085938 18.175781 3.042969 18.140625 3.003906 C 18.175781 3.070312 18.078125 3.023438 17.96875 2.972656 C 17.859375 2.921875 17.738281 2.878906 17.742188 2.933594 C 17.828125 2.980469 17.914062 3.035156 18 3.085938 C 17.996094 3.101562 17.898438 3.054688 17.953125 3.113281 Z M 17.953125 3.113281 " fill-opacity="1" fill-rule="nonzero"/><path fill="#231f20" d="M 18.886719 3.453125 L 18.972656 3.519531 C 18.886719 3.425781 18.8125 3.324219 18.738281 3.222656 C 18.585938 3.125 18.546875 3.113281 18.527344 3.117188 C 18.65625 3.238281 18.792969 3.351562 18.921875 3.472656 Z M 18.886719 3.453125 " fill-opacity="1" fill-rule="nonzero"/><path fill="#231f20" d="M 19.316406 3.851562 C 19.21875 3.828125 19.015625 3.671875 19.085938 3.820312 C 19.3125 4.035156 19.273438 3.945312 19.421875 4.0625 C 19.0625 3.707031 19.542969 4.148438 19.3125 3.859375 C 19.390625 3.921875 19.453125 3.988281 19.511719 4.046875 C 19.453125 3.976562 19.398438 3.90625 19.347656 3.839844 L 19.355469 3.851562 C 19.367188 3.871094 19.367188 3.878906 19.355469 3.859375 L 19.347656 3.851562 C 19.335938 3.855469 19.328125 3.855469 19.316406 3.851562 C 19.222656 3.738281 19.308594 3.824219 19.347656 3.851562 C 19.347656 3.851562 19.355469 3.851562 19.359375 3.851562 C 19.234375 3.734375 19.097656 3.628906 18.96875 3.519531 C 19.039062 3.597656 19.140625 3.6875 19.316406 3.851562 Z M 19.316406 3.851562 " fill-opacity="1" fill-rule="nonzero"/><path fill="#231f20" d="M 20.660156 5.996094 C 20.660156 5.980469 20.660156 5.976562 20.660156 5.976562 C 20.636719 5.953125 20.628906 5.945312 20.660156 5.996094 Z M 20.660156 5.996094 " fill-opacity="1" fill-rule="nonzero"/><path fill="#231f20" d="M 20.578125 5.804688 C 20.625 5.84375 20.667969 5.890625 20.695312 5.945312 C 20.738281 6.042969 20.671875 5.960938 20.660156 5.972656 C 20.710938 6.023438 20.828125 6.164062 20.730469 5.960938 L 20.707031 5.933594 C 20.613281 5.757812 20.53125 5.5 20.554688 5.523438 C 20.542969 5.621094 20.550781 5.714844 20.578125 5.804688 Z M 20.578125 5.804688 " fill-opacity="1" fill-rule="nonzero"/><path fill="#231f20" d="M 19.980469 4.796875 C 19.886719 4.691406 19.789062 4.59375 19.691406 4.496094 L 19.792969 4.6875 L 19.808594 4.660156 C 19.953125 4.851562 19.945312 4.789062 19.980469 4.796875 Z M 19.980469 4.796875 " fill-opacity="1" fill-rule="nonzero"/><path fill="#231f20" d="M 18.484375 3.042969 L 18.5625 3.035156 C 18.484375 3 18.398438 2.976562 18.320312 2.949219 Z M 18.484375 3.042969 " fill-opacity="1" fill-rule="nonzero"/><path fill="#231f20" d="M 18.042969 2.707031 L 18.089844 2.679688 C 18.042969 2.660156 17.996094 2.640625 17.953125 2.621094 Z M 18.042969 2.707031 " fill-opacity="1" fill-rule="nonzero"/><path fill="#231f20" d="M 1.96875 17.214844 L 2.039062 17.308594 C 2.019531 17.273438 1.992188 17.242188 1.96875 17.214844 Z M 1.96875 17.214844 " fill-opacity="1" fill-rule="nonzero"/><path fill="#231f20" d="M 1.5625 16.464844 L 1.53125 16.457031 C 1.5625 16.484375 1.578125 16.496094 1.5625 16.464844 Z M 1.5625 16.464844 " fill-opacity="1" fill-rule="nonzero"/><path fill="#231f20" d="M 5.234375 2.15625 C 5.054688 2.214844 4.839844 2.265625 4.886719 2.300781 L 4.964844 2.316406 C 5.050781 2.253906 5.136719 2.199219 5.234375 2.15625 Z M 5.234375 2.15625 " fill-opacity="1" fill-rule="nonzero"/><path fill="#231f20" d="M 0.386719 9.613281 L 0.414062 9.566406 L 0.386719 9.4375 C 0.386719 9.492188 0.382812 9.550781 0.386719 9.613281 Z M 0.386719 9.613281 " fill-opacity="1" fill-rule="nonzero"/><path fill="#231f20" d="M 0.597656 9.777344 L 0.519531 9.996094 C 0.550781 9.925781 0.574219 9.851562 0.597656 9.777344 Z M 0.597656 9.777344 " fill-opacity="1" fill-rule="nonzero"/><path fill="#231f20" d="M 5.175781 20.53125 C 5.222656 20.542969 5.273438 20.550781 5.320312 20.5625 C 5.144531 20.441406 5.207031 20.515625 5.175781 20.53125 Z M 5.175781 20.53125 " fill-opacity="1" fill-rule="nonzero"/><g clip-path="url(#4780fdd2db)"><path fill="#231f20" d="M 12.84375 0.597656 C 12.71875 0.5625 12.589844 0.53125 12.457031 0.511719 C 12.644531 0.570312 12.789062 0.636719 12.84375 0.597656 Z M 12.84375 0.597656 " fill-opacity="1" fill-rule="nonzero"/></g><path fill="#231f20" d="M 1.277344 17.207031 C 1.324219 17.269531 1.351562 17.292969 1.363281 17.285156 C 1.3125 17.222656 1.28125 17.1875 1.277344 17.207031 Z M 1.277344 17.207031 " fill-opacity="1" fill-rule="nonzero"/><g clip-path="url(#794752ce56)"><path fill="#231f20" d="M 12.003906 0.476562 C 12.03125 0.484375 12.058594 0.492188 12.089844 0.496094 C 12.214844 0.492188 12.335938 0.5 12.460938 0.515625 C 12.3125 0.46875 12.15625 0.457031 12.003906 0.476562 Z M 12.003906 0.476562 " fill-opacity="1" fill-rule="nonzero"/></g><path fill="#231f20" d="M 20.132812 17.738281 C 20.140625 17.730469 20.152344 17.71875 20.160156 17.710938 C 20.167969 17.703125 20.144531 17.714844 20.132812 17.738281 Z M 20.132812 17.738281 " fill-opacity="1" fill-rule="nonzero"/><g clip-path="url(#2bd089bd77)"><path fill="#231f20" d="M 22.433594 13.269531 C 22.433594 13.320312 22.421875 13.402344 22.410156 13.480469 C 22.425781 13.410156 22.433594 13.339844 22.433594 13.269531 Z M 22.433594 13.269531 " fill-opacity="1" fill-rule="nonzero"/></g><path fill="#231f20" d="M 16.148438 1.542969 C 16.257812 1.589844 16.171875 1.542969 16.148438 1.542969 Z M 16.148438 1.542969 " fill-opacity="1" fill-rule="nonzero"/><path fill="#231f20" d="M 16.550781 1.992188 C 16.527344 1.988281 16.507812 1.988281 16.496094 1.992188 C 16.515625 1.988281 16.535156 1.988281 16.550781 1.992188 Z M 16.550781 1.992188 " fill-opacity="1" fill-rule="nonzero"/><g clip-path="url(#557da947ba)"><path fill="#231f20" d="M 10.84375 0.804688 L 10.835938 0.804688 C 10.867188 0.816406 10.863281 0.8125 10.84375 0.804688 Z M 10.84375 0.804688 " fill-opacity="1" fill-rule="nonzero"/></g><path fill="#231f20" d="M 16.292969 1.644531 C 16.257812 1.617188 16.214844 1.589844 16.167969 1.558594 C 16.1875 1.574219 16.226562 1.601562 16.292969 1.644531 Z M 16.292969 1.644531 " fill-opacity="1" fill-rule="nonzero"/><path fill="#231f20" d="M 16.285156 1.609375 L 16.371094 1.660156 C 16.390625 1.660156 16.382812 1.648438 16.285156 1.609375 Z M 16.285156 1.609375 " fill-opacity="1" fill-rule="nonzero"/><path fill="#231f20" d="M 15.996094 1.480469 C 16.058594 1.503906 16.113281 1.535156 16.167969 1.566406 C 16.148438 1.550781 16.140625 1.542969 16.148438 1.546875 Z M 15.996094 1.480469 " fill-opacity="1" fill-rule="nonzero"/><path fill="#231f20" d="M 12.65625 22.496094 L 12.679688 22.496094 C 12.789062 22.457031 12.742188 22.46875 12.65625 22.496094 Z M 12.65625 22.496094 " fill-opacity="1" fill-rule="nonzero"/><path fill="#231f20" d="M 3.304688 4.480469 C 3.304688 4.480469 3.304688 4.472656 3.3125 4.46875 L 3.300781 4.480469 Z M 3.304688 4.480469 " fill-opacity="1" fill-rule="nonzero"/><path fill="#231f20" d="M 3.070312 4.800781 C 3.109375 4.667969 3.1875 4.558594 3.300781 4.476562 C 3.230469 4.472656 3.160156 4.46875 3.089844 4.464844 Z M 3.070312 4.800781 " fill-opacity="1" fill-rule="nonzero"/><g clip-path="url(#09c54f9026)"><path fill="#231f20" d="M 3.1875 18.84375 L 3.042969 18.601562 C 3.328125 18.800781 3.464844 19 3.347656 18.757812 C 3.308594 18.78125 3.242188 18.742188 3.164062 18.671875 C 3.074219 18.589844 2.988281 18.496094 2.914062 18.398438 C 2.828125 18.296875 2.738281 18.191406 2.667969 18.117188 C 2.597656 18.042969 2.535156 17.996094 2.496094 18.015625 L 2.417969 17.84375 C 2.449219 17.886719 2.460938 17.886719 2.492188 17.929688 C 2.351562 17.59375 2.230469 17.785156 2 17.382812 C 1.925781 17.238281 1.894531 17.125 1.96875 17.210938 L 1.75 16.921875 C 1.703125 16.828125 1.742188 16.835938 1.789062 16.929688 C 1.695312 16.773438 1.617188 16.609375 1.523438 16.453125 L 1.53125 16.453125 C 1.449219 16.367188 1.375 16.273438 1.308594 16.179688 C 1.273438 16.042969 1.351562 16.234375 1.359375 16.191406 C 1.304688 16.109375 1.246094 16.023438 1.195312 15.9375 C 1.195312 15.871094 1.226562 15.890625 1.269531 15.953125 C 1.324219 16.035156 1.371094 16.121094 1.410156 16.210938 C 1.4375 16.097656 1.410156 15.996094 1.335938 15.910156 C 1.230469 15.75 1.164062 15.578125 1.132812 15.394531 C 1.171875 15.480469 1.222656 15.566406 1.257812 15.652344 C 1.265625 15.542969 1.25 15.4375 1.21875 15.335938 C 1.183594 15.203125 1.15625 15.066406 1.132812 14.933594 C 1.125 15.011719 1.191406 15.585938 1.046875 15.292969 C 1.019531 15.164062 0.972656 15.042969 0.90625 14.925781 C 0.964844 14.90625 0.90625 14.746094 0.839844 14.539062 L 0.925781 14.53125 C 0.902344 14.464844 0.867188 14.402344 0.824219 14.34375 C 0.792969 14.308594 0.761719 14.265625 0.738281 14.222656 C 0.6875 13.964844 0.738281 13.902344 0.78125 13.832031 C 0.722656 13.421875 0.730469 14.132812 0.628906 13.652344 C 0.621094 13.566406 0.609375 13.488281 0.597656 13.410156 C 0.585938 13.332031 0.574219 13.257812 0.558594 13.183594 C 0.53125 13.027344 0.484375 12.871094 0.449219 12.664062 C 0.457031 12.417969 0.5 12.703125 0.519531 12.613281 L 0.433594 12.402344 C 0.433594 12.351562 0.449219 12.367188 0.460938 12.375 C 0.425781 12.195312 0.375 12.363281 0.347656 12.078125 C 0.300781 12.039062 0.324219 11.890625 0.359375 11.707031 C 0.410156 11.519531 0.417969 11.324219 0.390625 11.132812 C 0.421875 11.046875 0.4375 11.175781 0.472656 11.152344 C 0.457031 10.910156 0.449219 10.804688 0.441406 10.710938 C 0.433594 10.617188 0.429688 10.53125 0.410156 10.328125 C 0.441406 10.21875 0.472656 10.105469 0.515625 10 C 0.40625 10.234375 0.390625 9.914062 0.382812 9.617188 C 0.335938 9.703125 0.296875 9.769531 0.277344 9.820312 C 0.289062 9.667969 0.300781 9.511719 0.324219 9.359375 C 0.351562 9.308594 0.367188 9.359375 0.382812 9.441406 C 0.382812 9.410156 0.382812 9.378906 0.382812 9.355469 C 0.449219 9.203125 0.476562 9.296875 0.496094 9.421875 L 0.410156 9.570312 C 0.441406 9.691406 0.476562 9.800781 0.527344 9.789062 C 0.523438 9.738281 0.523438 9.6875 0.527344 9.636719 C 0.535156 9.667969 0.546875 9.691406 0.554688 9.679688 C 0.566406 9.667969 0.554688 9.613281 0.554688 9.539062 L 0.667969 9.460938 L 0.636719 9.429688 L 0.734375 9.148438 C 0.761719 9.058594 0.804688 8.96875 0.839844 8.875 C 0.84375 8.769531 0.847656 8.664062 0.851562 8.558594 C 0.855469 8.453125 0.867188 8.34375 0.878906 8.226562 C 0.886719 8.167969 0.894531 8.109375 0.902344 8.046875 C 0.914062 7.984375 0.929688 7.921875 0.945312 7.855469 C 0.976562 7.707031 1.019531 7.558594 1.074219 7.417969 C 1.066406 7.59375 1.160156 7.492188 1.230469 7.53125 C 1.152344 7.597656 1.117188 7.722656 1.078125 7.867188 L 1.015625 8.097656 C 0.996094 8.179688 0.972656 8.261719 0.941406 8.339844 C 1.007812 8.171875 1.027344 8.222656 1.027344 8.273438 C 1.066406 8.070312 1.125 7.871094 1.171875 7.671875 C 1.230469 7.707031 1.265625 7.566406 1.359375 7.433594 C 1.273438 7.464844 1.300781 7.347656 1.359375 7.199219 C 1.375 7.164062 1.390625 7.121094 1.40625 7.082031 L 1.464844 6.960938 C 1.5 6.890625 1.527344 6.816406 1.554688 6.742188 C 1.601562 6.75 1.613281 6.824219 1.464844 7.085938 C 1.707031 6.835938 1.523438 6.628906 1.765625 6.378906 C 1.730469 6.445312 1.703125 6.476562 1.707031 6.511719 C 1.75 6.402344 1.804688 6.296875 1.871094 6.199219 C 1.9375 6.101562 2 6.046875 1.988281 6.097656 L 1.949219 6.160156 C 2.019531 6.058594 2.105469 5.929688 2.191406 5.789062 C 2.28125 5.648438 2.386719 5.507812 2.472656 5.371094 C 2.5625 5.234375 2.648438 5.113281 2.707031 5.015625 C 2.753906 4.953125 2.78125 4.882812 2.789062 4.808594 C 2.820312 4.863281 2.839844 4.917969 2.847656 4.980469 C 2.941406 4.679688 3.042969 4.371094 3.167969 4.070312 C 3.183594 4.191406 3.550781 4.132812 3.308594 4.464844 C 3.359375 4.421875 3.410156 4.375 3.460938 4.324219 C 3.519531 4.269531 3.582031 4.191406 3.660156 4.097656 C 3.59375 4.140625 3.417969 4.140625 3.492188 4.054688 C 3.789062 3.921875 3.683594 3.949219 4.019531 3.765625 C 3.914062 3.828125 3.917969 3.632812 4.066406 3.507812 C 4.058594 3.542969 4.175781 3.605469 4.132812 3.664062 L 4.265625 3.453125 C 4.308594 3.382812 4.359375 3.316406 4.40625 3.25 C 4.328125 3.34375 4.46875 3.355469 4.578125 3.324219 C 4.550781 3.324219 4.632812 3.265625 4.730469 3.191406 C 4.832031 3.117188 4.957031 3.039062 5.003906 2.996094 L 4.820312 3.082031 C 4.976562 2.984375 5.105469 2.859375 5.207031 2.703125 C 5.25 2.644531 5.296875 2.585938 5.347656 2.535156 C 5.425781 2.453125 5.511719 2.386719 5.609375 2.335938 C 5.566406 2.394531 5.566406 2.574219 5.808594 2.453125 C 5.875 2.328125 5.953125 2.203125 6.039062 2.085938 C 6.175781 1.898438 6.34375 1.742188 6.542969 1.617188 L 6.644531 1.617188 C 6.753906 1.554688 6.859375 1.484375 6.96875 1.425781 C 6.882812 1.515625 6.710938 1.691406 6.539062 1.863281 C 6.453125 1.949219 6.363281 2.039062 6.277344 2.121094 C 6.191406 2.199219 6.117188 2.277344 6.050781 2.335938 C 6.246094 2.273438 6.125 2.355469 6.390625 2.214844 C 6.5 2.203125 6.273438 2.34375 6.195312 2.386719 C 6.40625 2.292969 6.613281 2.191406 6.828125 2.109375 C 6.796875 2.074219 6.910156 2.003906 7.023438 1.929688 C 7.136719 1.855469 7.257812 1.796875 7.230469 1.765625 C 7.003906 1.882812 6.789062 2.023438 6.574219 2.148438 C 6.539062 2.117188 6.613281 2.015625 6.753906 1.898438 C 6.835938 1.832031 6.921875 1.769531 7.011719 1.71875 C 7.121094 1.660156 7.230469 1.613281 7.347656 1.570312 C 7.476562 1.554688 7.3125 1.75 7.332031 1.773438 C 7.40625 1.722656 7.484375 1.679688 7.566406 1.648438 C 7.644531 1.613281 7.722656 1.589844 7.804688 1.570312 L 7.621094 1.683594 C 7.742188 1.648438 7.855469 1.601562 7.960938 1.53125 C 8.082031 1.460938 8.214844 1.421875 8.359375 1.417969 C 8.46875 1.390625 8.714844 1.441406 8.722656 1.390625 C 8.519531 1.335938 8.402344 1.046875 8.511719 0.945312 L 8.855469 0.925781 C 8.9375 0.921875 9.023438 0.921875 9.105469 0.925781 C 9.164062 0.925781 9.21875 0.929688 9.277344 0.9375 C 9.476562 0.980469 9.027344 1.167969 9.199219 1.207031 C 9.199219 1.179688 9.300781 1.132812 9.34375 1.121094 C 9.464844 1.121094 9.304688 1.199219 9.5625 1.144531 C 9.589844 1.050781 10.09375 1.085938 9.671875 1.058594 C 9.761719 1.035156 9.851562 1.023438 9.945312 1.023438 C 10.019531 1.023438 10.097656 1.019531 10.25 1.007812 C 10.199219 0.980469 10.261719 0.929688 10.371094 0.875 C 10.496094 0.816406 10.628906 0.773438 10.769531 0.753906 C 10.753906 0.777344 10.8125 0.804688 10.84375 0.816406 C 10.976562 0.816406 11.09375 0.816406 11.203125 0.816406 C 11.3125 0.816406 11.414062 0.832031 11.515625 0.839844 L 11.820312 0.863281 C 11.925781 0.875 12.035156 0.886719 12.160156 0.898438 C 12.203125 0.921875 12.4375 0.964844 12.332031 0.996094 C 12.429688 0.976562 12.527344 0.972656 12.625 0.984375 C 12.90625 1.097656 12.285156 0.953125 12.496094 1.070312 C 12.523438 1.023438 12.898438 1.042969 13.117188 1.054688 C 13.089844 1.011719 12.964844 0.980469 12.820312 0.96875 C 12.675781 0.957031 12.511719 0.964844 12.402344 0.96875 C 12.40625 0.917969 12.507812 0.871094 12.671875 0.84375 C 12.769531 0.828125 12.867188 0.820312 12.96875 0.816406 C 13.078125 0.816406 13.203125 0.824219 13.335938 0.835938 C 13.546875 0.855469 13.585938 0.890625 13.585938 0.90625 C 13.582031 0.925781 13.539062 0.9375 13.574219 0.9375 C 13.71875 0.976562 13.867188 1.003906 14.015625 1.015625 C 14.105469 1.027344 14.195312 1.035156 14.289062 1.035156 C 14.371094 1.03125 14.453125 1.039062 14.535156 1.054688 C 14.65625 1.085938 14.773438 1.128906 14.886719 1.183594 C 15.109375 1.332031 14.851562 1.320312 14.886719 1.382812 C 14.75 1.347656 14.621094 1.300781 14.496094 1.242188 C 14.394531 1.195312 14.289062 1.15625 14.179688 1.121094 L 14.453125 1.222656 C 14.296875 1.207031 14.148438 1.171875 14.007812 1.117188 C 14.097656 1.164062 14.195312 1.199219 14.292969 1.226562 L 14.519531 1.296875 L 14.777344 1.382812 C 14.867188 1.414062 14.960938 1.445312 15.050781 1.476562 L 15.320312 1.585938 C 15.480469 1.65625 15.636719 1.734375 15.785156 1.820312 C 15.894531 1.84375 16.070312 1.898438 16.003906 1.835938 L 15.828125 1.769531 C 15.6875 1.644531 16.1875 1.84375 15.976562 1.722656 C 16.113281 1.757812 16.246094 1.800781 16.378906 1.851562 C 16.449219 1.878906 16.523438 1.910156 16.597656 1.945312 C 16.671875 1.984375 16.746094 2.03125 16.816406 2.078125 L 16.839844 2.183594 C 16.847656 2.160156 16.660156 2.023438 16.558594 1.996094 C 16.664062 2.046875 16.765625 2.113281 16.855469 2.195312 C 16.910156 2.234375 16.964844 2.273438 17.027344 2.308594 C 17.074219 2.339844 17.125 2.359375 17.183594 2.363281 C 17.121094 2.300781 17.058594 2.238281 16.996094 2.183594 C 17.117188 2.226562 17.253906 2.285156 17.398438 2.347656 C 17.472656 2.378906 17.542969 2.414062 17.613281 2.453125 C 17.679688 2.496094 17.742188 2.542969 17.804688 2.59375 C 17.726562 2.445312 17.738281 2.558594 17.597656 2.347656 C 17.707031 2.550781 16.894531 1.898438 17.105469 2.171875 C 17.035156 2.078125 16.949219 2.003906 16.851562 1.941406 C 16.742188 1.871094 16.636719 1.789062 16.539062 1.699219 C 16.539062 1.726562 16.613281 1.796875 16.375 1.660156 C 16.351562 1.660156 16.332031 1.65625 16.308594 1.652344 L 16.292969 1.640625 L 16.308594 1.652344 C 16.292969 1.652344 16.292969 1.652344 16.3125 1.652344 C 16.351562 1.679688 16.386719 1.710938 16.417969 1.75 C 16.296875 1.726562 16.183594 1.691406 16.070312 1.640625 C 15.9375 1.59375 15.800781 1.539062 15.726562 1.523438 C 15.582031 1.445312 15.800781 1.523438 15.730469 1.460938 C 15.65625 1.445312 15.585938 1.429688 15.511719 1.417969 C 15.511719 1.359375 15.144531 1.171875 15.511719 1.28125 L 15.199219 1.160156 C 15.003906 1.050781 14.800781 0.976562 14.582031 0.929688 C 14.429688 0.871094 14.167969 0.878906 14.316406 0.875 C 14.230469 0.855469 14.140625 0.835938 14.050781 0.816406 L 13.78125 0.773438 L 13.78125 0.761719 C 13.511719 0.703125 13.238281 0.660156 12.964844 0.632812 C 12.667969 0.609375 12.378906 0.5625 12.089844 0.496094 C 12.003906 0.496094 11.90625 0.496094 11.800781 0.496094 C 11.695312 0.496094 11.570312 0.496094 11.421875 0.484375 L 11.363281 0.433594 C 11.246094 0.433594 11.074219 0.433594 10.914062 0.425781 C 10.757812 0.417969 10.613281 0.417969 10.570312 0.449219 C 10.472656 0.417969 10.375 0.40625 10.277344 0.410156 C 10.214844 0.410156 10.144531 0.410156 10.074219 0.417969 C 10.003906 0.425781 9.929688 0.4375 9.855469 0.449219 C 9.707031 0.472656 9.550781 0.492188 9.410156 0.523438 C 9.265625 0.550781 9.136719 0.578125 9.035156 0.589844 L 9.035156 0.65625 C 8.894531 0.679688 8.757812 0.714844 8.621094 0.753906 L 8.40625 0.820312 C 8.332031 0.84375 8.253906 0.875 8.171875 0.90625 L 8.207031 0.953125 C 8.035156 1.019531 7.859375 1.074219 7.675781 1.113281 L 7.355469 1.199219 C 7.242188 1.230469 7.132812 1.273438 7.023438 1.316406 C 7.089844 1.269531 7.164062 1.242188 7.242188 1.230469 C 7.097656 1.25 6.953125 1.285156 6.816406 1.339844 C 6.683594 1.402344 6.554688 1.46875 6.425781 1.542969 C 6.296875 1.613281 6.179688 1.695312 6.058594 1.761719 C 5.941406 1.832031 5.820312 1.886719 5.691406 1.933594 C 5.613281 2 5.523438 2.050781 5.421875 2.085938 C 5.433594 2.082031 5.441406 2.078125 5.449219 2.070312 L 5.402344 2.09375 C 5.347656 2.113281 5.289062 2.136719 5.234375 2.160156 C 5.289062 2.144531 5.335938 2.125 5.378906 2.109375 C 5.265625 2.179688 5.160156 2.253906 5.054688 2.335938 L 4.96875 2.320312 L 4.941406 2.339844 C 4.808594 2.398438 4.859375 2.425781 4.949219 2.425781 C 4.898438 2.464844 4.855469 2.511719 4.8125 2.5625 C 4.738281 2.554688 4.664062 2.617188 4.585938 2.679688 C 4.546875 2.714844 4.507812 2.742188 4.464844 2.765625 C 4.425781 2.792969 4.378906 2.8125 4.332031 2.816406 C 4.242188 2.921875 4.148438 3.019531 4.039062 3.109375 C 3.914062 3.238281 3.796875 3.371094 3.804688 3.4375 C 3.789062 3.429688 3.753906 3.453125 3.8125 3.402344 C 3.679688 3.488281 3.566406 3.59375 3.472656 3.722656 L 3.367188 3.710938 L 3.28125 3.871094 L 3.195312 4.035156 C 3.011719 4.152344 2.929688 4.199219 3.03125 4.003906 C 2.960938 4.113281 2.90625 4.1875 2.867188 4.246094 C 2.824219 4.300781 2.796875 4.34375 2.769531 4.382812 C 2.691406 4.492188 2.621094 4.605469 2.558594 4.726562 L 2.53125 4.675781 C 2.4375 4.800781 2.335938 5.035156 2.246094 5.085938 C 2.136719 5.179688 2.042969 5.289062 1.957031 5.40625 C 1.898438 5.480469 1.835938 5.570312 1.773438 5.664062 L 1.578125 5.964844 C 1.320312 6.394531 1.050781 6.894531 0.832031 7.289062 C 0.941406 7.238281 0.878906 7.328125 0.808594 7.4375 C 0.738281 7.550781 0.660156 7.6875 0.707031 7.726562 C 0.65625 7.761719 0.589844 7.871094 0.613281 7.726562 C 0.578125 7.835938 0.542969 7.929688 0.515625 8.015625 C 0.484375 8.101562 0.449219 8.175781 0.429688 8.25 C 0.367188 8.390625 0.335938 8.539062 0.339844 8.695312 C 0.292969 8.734375 0.316406 8.585938 0.285156 8.625 C 0.285156 8.691406 0.269531 8.753906 0.242188 8.8125 C 0.207031 8.851562 0.230469 8.742188 0.234375 8.667969 C 0.210938 8.757812 0.191406 8.847656 0.179688 8.941406 C 0.175781 9 0.179688 9.058594 0.195312 9.113281 C 0.210938 9.179688 0.25 9.226562 0.308594 9.257812 C 0.265625 9.34375 0.234375 9.433594 0.214844 9.527344 C 0.207031 9.609375 0.210938 9.691406 0.230469 9.773438 C 0.179688 9.84375 0.121094 9.976562 0.160156 9.6875 L 0.113281 9.90625 L 0.078125 10.066406 L 0.0546875 10.238281 C 0.0234375 10.464844 0.00390625 10.675781 0.0507812 10.691406 C 0.0273438 10.777344 0.0234375 10.867188 0.03125 10.960938 L 0.0117188 11.179688 C 0.0078125 11.238281 0.00390625 11.289062 0.00390625 11.335938 C 0.00390625 11.433594 -0.00390625 11.53125 -0.00390625 11.710938 L 0.0117188 11.613281 C 0.105469 11.753906 0.0351562 11.910156 0.0507812 12.195312 L 0.0429688 12.1875 C 0.03125 12.300781 0.0273438 12.410156 0.0351562 12.523438 C 0.0351562 12.566406 0.0429688 12.613281 0.0507812 12.660156 C 0.0585938 12.703125 0.0625 12.75 0.0664062 12.792969 L 0.0664062 13.125 L 0.121094 13.082031 C 0.191406 13.105469 0.191406 13.25 0.183594 13.433594 C 0.175781 13.636719 0.195312 13.832031 0.246094 14.027344 L 0.253906 13.886719 C 0.289062 14.019531 0.289062 14.152344 0.261719 14.285156 C 0.234375 14.421875 0.226562 14.5625 0.238281 14.699219 C 0.238281 14.746094 0.199219 14.636719 0.175781 14.574219 C 0.25 15.128906 0.273438 14.625 0.40625 15.011719 C 0.382812 15.097656 0.265625 14.949219 0.34375 15.214844 C 0.347656 15.285156 0.445312 15.46875 0.550781 15.675781 C 0.605469 15.777344 0.664062 15.886719 0.710938 15.992188 C 0.734375 16.046875 0.753906 16.097656 0.773438 16.152344 C 0.789062 16.199219 0.804688 16.25 0.816406 16.296875 C 0.816406 16.214844 0.808594 16.121094 0.910156 16.285156 C 1.035156 16.542969 1.136719 17.050781 1.359375 17.226562 C 1.371094 17.265625 1.371094 17.28125 1.359375 17.285156 C 1.429688 17.371094 1.523438 17.527344 1.628906 17.660156 C 1.707031 17.769531 1.792969 17.867188 1.890625 17.957031 C 1.875 18.03125 1.925781 18.128906 2.003906 18.246094 C 2.089844 18.375 2.1875 18.492188 2.296875 18.605469 C 2.410156 18.71875 2.511719 18.832031 2.585938 18.917969 C 2.660156 19 2.691406 19.066406 2.65625 19.097656 C 2.730469 19.183594 2.804688 19.269531 2.886719 19.351562 L 3.125 19.59375 L 3.101562 19.59375 C 3.207031 19.714844 3.328125 19.824219 3.457031 19.917969 C 3.53125 19.96875 3.609375 20.015625 3.695312 20.050781 C 3.761719 20.128906 3.695312 20.09375 3.679688 20.09375 C 3.832031 20.253906 3.996094 20.402344 4.171875 20.53125 C 4.335938 20.640625 4.507812 20.734375 4.6875 20.8125 L 4.695312 20.898438 C 4.757812 20.933594 4.816406 20.972656 4.867188 21.023438 C 4.949219 21.085938 5.054688 21.164062 5.171875 21.25 C 5.230469 21.296875 5.292969 21.335938 5.355469 21.386719 C 5.421875 21.433594 5.492188 21.472656 5.5625 21.511719 C 5.703125 21.597656 5.847656 21.667969 6.003906 21.726562 C 5.992188 21.726562 5.976562 21.734375 5.925781 21.722656 C 6.257812 21.851562 6.617188 22.070312 6.957031 22.230469 C 7.292969 22.390625 7.589844 22.492188 7.746094 22.425781 C 7.898438 22.457031 8.054688 22.476562 8.210938 22.5 C 7.636719 22.320312 8.324219 22.429688 8.097656 22.324219 C 8.210938 22.351562 8.324219 22.394531 8.429688 22.449219 C 8.507812 22.492188 8.519531 22.519531 8.378906 22.488281 L 8.339844 22.464844 C 8.203125 22.5625 9.050781 22.679688 9.019531 22.75 C 9.597656 22.863281 10.175781 22.941406 10.761719 22.984375 L 11.195312 23.007812 C 11.335938 23.007812 11.480469 23.007812 11.625 23.007812 C 11.695312 23.007812 11.769531 23.007812 11.839844 23.007812 L 12.050781 22.996094 C 12.191406 22.984375 12.332031 22.980469 12.46875 22.960938 C 12.425781 22.9375 12.378906 22.914062 12.332031 22.882812 C 12.460938 22.871094 12.59375 22.855469 12.71875 22.84375 C 12.820312 22.851562 12.863281 22.898438 12.585938 22.925781 C 12.683594 22.9375 12.78125 22.925781 12.871094 22.886719 C 12.9375 22.871094 12.992188 22.839844 13.046875 22.800781 C 13.585938 22.746094 12.855469 22.945312 13.019531 22.917969 L 13.242188 22.871094 L 13.1875 22.871094 C 13.277344 22.835938 13.320312 22.808594 13.386719 22.785156 C 13.425781 22.773438 13.464844 22.757812 13.507812 22.75 C 13.554688 22.734375 13.617188 22.71875 13.699219 22.699219 C 13.90625 22.671875 13.816406 22.734375 13.898438 22.71875 C 13.898438 22.722656 13.929688 22.71875 14.023438 22.691406 C 14.183594 22.652344 14.339844 22.605469 14.5 22.566406 L 14.289062 22.550781 C 14.488281 22.457031 14.730469 22.425781 14.492188 22.410156 C 14.664062 22.421875 15.105469 22.296875 15.511719 22.128906 C 15.714844 22.050781 15.910156 21.953125 16.066406 21.882812 C 16.171875 21.828125 16.28125 21.777344 16.390625 21.734375 C 16.453125 21.6875 16.515625 21.648438 16.578125 21.605469 C 16.644531 21.558594 16.707031 21.519531 16.773438 21.476562 C 16.90625 21.390625 17.054688 21.316406 17.210938 21.21875 C 17.125 21.257812 17.039062 21.214844 17.304688 21.054688 C 17.304688 21.15625 17.441406 21.097656 17.605469 20.996094 C 17.761719 20.886719 17.929688 20.800781 18.109375 20.734375 C 17.992188 20.773438 18.167969 20.628906 18.328125 20.492188 C 18.488281 20.355469 18.621094 20.214844 18.449219 20.289062 C 18.660156 20.125 18.503906 20.328125 18.683594 20.226562 C 18.792969 20.113281 18.910156 19.992188 19.035156 19.875 L 19.230469 19.695312 L 19.425781 19.507812 C 19.492188 19.441406 19.5625 19.378906 19.628906 19.3125 L 19.824219 19.105469 C 19.957031 18.964844 20.082031 18.8125 20.195312 18.65625 C 20.1875 18.632812 20.078125 18.714844 20.15625 18.5625 C 20.273438 18.476562 20.378906 18.390625 20.492188 18.296875 C 20.519531 18.246094 20.535156 18.1875 20.539062 18.125 C 20.566406 18.039062 20.617188 17.96875 20.691406 17.914062 C 20.652344 17.9375 20.59375 17.972656 20.644531 17.882812 C 21.113281 17.273438 21.457031 16.5625 21.734375 15.828125 C 22.007812 15.097656 22.214844 14.339844 22.445312 13.585938 C 22.363281 13.789062 22.382812 13.648438 22.410156 13.492188 C 22.382812 13.589844 22.355469 13.480469 22.324219 13.496094 C 22.378906 13.285156 22.441406 13.074219 22.488281 12.863281 C 22.453125 12.800781 22.464844 12.625 22.476562 12.457031 C 22.484375 12.292969 22.484375 12.128906 22.445312 12.09375 L 22.457031 12.285156 C 22.414062 12.148438 22.359375 12.242188 22.296875 12.363281 C 22.234375 12.480469 22.15625 12.625 22.097656 12.601562 C 22.117188 12.6875 22.117188 12.773438 22.097656 12.859375 C 22.078125 12.953125 22.046875 13.054688 22.015625 13.160156 C 21.984375 13.265625 21.957031 13.378906 21.929688 13.492188 C 21.902344 13.613281 21.898438 13.734375 21.914062 13.855469 C 21.871094 13.957031 21.890625 13.757812 21.851562 13.808594 C 21.886719 13.941406 21.859375 14.085938 21.773438 14.351562 L 21.769531 14.316406 C 21.734375 14.484375 21.6875 14.648438 21.636719 14.808594 C 21.59375 14.949219 21.542969 15.085938 21.484375 15.21875 C 21.433594 15.351562 21.378906 15.488281 21.304688 15.636719 C 21.230469 15.785156 21.164062 15.953125 21.0625 16.144531 L 21.148438 16.109375 C 21.101562 16.203125 21.046875 16.292969 20.980469 16.375 C 20.976562 16.609375 21.199219 15.902344 21.214844 16.117188 C 21.140625 16.195312 21.078125 16.28125 21.035156 16.378906 C 20.96875 16.5 20.890625 16.644531 20.816406 16.785156 C 20.75 16.914062 20.675781 17.042969 20.589844 17.164062 C 20.515625 17.269531 20.453125 17.34375 20.398438 17.359375 C 20.242188 17.597656 20.503906 17.324219 20.347656 17.566406 L 20.277344 17.609375 L 20.277344 17.695312 C 20.234375 17.753906 20.1875 17.808594 20.128906 17.851562 C 20.085938 17.878906 20.054688 17.890625 20.039062 17.882812 C 20.074219 17.832031 20.105469 17.785156 20.132812 17.730469 C 20.03125 17.839844 19.945312 17.957031 19.867188 18.085938 C 19.8125 18.175781 19.75 18.265625 19.679688 18.347656 C 19.742188 18.28125 19.804688 18.214844 19.867188 18.144531 C 19.753906 18.304688 19.632812 18.46875 19.496094 18.628906 C 19.363281 18.792969 19.222656 18.957031 19.070312 19.105469 L 18.851562 19.339844 L 18.628906 19.5625 C 18.484375 19.710938 18.335938 19.847656 18.207031 19.992188 L 18.269531 19.976562 C 18.21875 20.027344 18.175781 20.070312 18.136719 20.109375 C 18.097656 20.144531 18.058594 20.171875 18.027344 20.195312 C 17.964844 20.242188 17.914062 20.28125 17.863281 20.308594 L 17.683594 20.425781 C 17.609375 20.472656 17.515625 20.539062 17.390625 20.636719 L 17.40625 20.617188 C 17.296875 20.730469 17.171875 20.828125 17.035156 20.910156 C 17.152344 20.792969 16.746094 21.015625 16.902344 20.871094 C 16.652344 21.058594 16.585938 21.101562 16.550781 21.144531 C 16.492188 21.222656 16.425781 21.296875 16.347656 21.363281 L 16.238281 21.363281 C 16.1875 21.414062 16.160156 21.449219 16.113281 21.484375 C 16.03125 21.546875 15.945312 21.597656 15.851562 21.640625 C 16.074219 21.496094 15.636719 21.65625 15.878906 21.488281 C 15.738281 21.527344 15.601562 21.578125 15.46875 21.640625 C 15.347656 21.695312 15.25 21.742188 15.160156 21.789062 C 14.980469 21.886719 14.832031 21.949219 14.664062 21.925781 C 14.539062 22.035156 14.679688 22.011719 14.835938 21.960938 C 14.992188 21.910156 15.152344 21.839844 15.078125 21.886719 C 15.152344 21.878906 15.105469 21.925781 15.007812 21.980469 C 14.898438 22.039062 14.785156 22.085938 14.667969 22.121094 C 14.554688 22.144531 14.441406 22.152344 14.328125 22.136719 C 14.246094 22.132812 14.164062 22.136719 14.085938 22.144531 C 14.039062 22.152344 13.988281 22.160156 13.933594 22.171875 C 13.878906 22.179688 13.820312 22.191406 13.753906 22.207031 C 13.804688 22.195312 13.808594 22.183594 13.859375 22.171875 C 13.757812 22.183594 13.660156 22.207031 13.566406 22.242188 C 13.515625 22.257812 13.464844 22.273438 13.410156 22.285156 C 13.355469 22.296875 13.296875 22.300781 13.238281 22.296875 C 13.117188 22.398438 12.925781 22.347656 12.902344 22.457031 L 13.382812 22.347656 C 13.246094 22.382812 13.125 22.445312 12.96875 22.496094 C 12.785156 22.558594 12.597656 22.585938 12.402344 22.582031 C 12.484375 22.542969 12.570312 22.511719 12.660156 22.488281 C 12.523438 22.472656 12.402344 22.542969 12.261719 22.523438 C 12.277344 22.472656 12.425781 22.449219 12.609375 22.421875 C 12.695312 22.410156 12.796875 22.398438 12.890625 22.378906 C 12.976562 22.363281 13.058594 22.335938 13.140625 22.300781 C 13.035156 22.308594 12.929688 22.328125 12.828125 22.363281 C 12.726562 22.382812 12.660156 22.394531 12.726562 22.332031 C 12.628906 22.417969 12.5 22.425781 12.351562 22.4375 C 12.179688 22.429688 12.015625 22.453125 11.855469 22.507812 L 11.875 22.445312 C 11.78125 22.472656 11.691406 22.488281 11.59375 22.492188 L 11.78125 22.40625 C 11.492188 22.480469 11.21875 22.367188 10.941406 22.390625 C 11.234375 22.398438 11.265625 22.414062 11.257812 22.4375 C 11.25 22.460938 11.195312 22.496094 11.320312 22.511719 C 10.589844 22.582031 10.90625 22.359375 10.105469 22.324219 C 10.214844 22.324219 10.507812 22.394531 10.335938 22.410156 C 10.261719 22.398438 10.171875 22.386719 10.09375 22.363281 C 10.023438 22.347656 9.960938 22.324219 9.894531 22.296875 C 9.367188 22.242188 9.96875 22.371094 9.738281 22.378906 C 9.566406 22.285156 9.472656 22.367188 9.234375 22.351562 L 9.246094 22.292969 C 9.171875 22.273438 9.113281 22.261719 9.066406 22.253906 C 9.03125 22.246094 8.996094 22.242188 8.957031 22.238281 C 8.925781 22.234375 8.894531 22.242188 8.863281 22.257812 C 8.824219 22.28125 8.792969 22.304688 8.527344 22.21875 L 8.777344 22.1875 C 8.679688 22.171875 8.585938 22.164062 8.492188 22.144531 C 8.515625 22.125 8.539062 22.109375 8.566406 22.089844 C 8.445312 22.082031 8.328125 22.058594 8.210938 22.027344 C 8.097656 21.996094 7.984375 21.957031 7.878906 21.90625 C 7.929688 21.972656 7.804688 22.003906 7.542969 21.917969 C 7.382812 21.820312 7.660156 21.902344 7.300781 21.769531 C 7.425781 21.75 7.539062 21.78125 7.636719 21.863281 C 7.660156 21.847656 7.730469 21.855469 7.753906 21.839844 C 7.5625 21.75 7.363281 21.671875 7.160156 21.609375 C 7.207031 21.628906 7.253906 21.652344 7.296875 21.679688 C 7.203125 21.65625 7.113281 21.636719 7.019531 21.617188 L 6.75 21.542969 C 6.679688 21.484375 6.75 21.496094 6.820312 21.507812 C 6.707031 21.476562 6.59375 21.4375 6.480469 21.394531 C 6.542969 21.367188 6.554688 21.320312 6.777344 21.394531 C 6.605469 21.34375 6.445312 21.277344 6.277344 21.214844 C 6.257812 21.179688 6.066406 21.039062 6.136719 21.050781 C 5.992188 20.960938 5.835938 20.886719 5.675781 20.824219 C 5.496094 20.746094 5.324219 20.648438 5.171875 20.527344 C 5.121094 20.515625 5.078125 20.496094 5.039062 20.46875 C 4.964844 20.414062 4.894531 20.355469 4.828125 20.300781 C 4.761719 20.246094 4.699219 20.183594 4.628906 20.125 C 4.5625 20.066406 4.488281 20.007812 4.414062 19.953125 C 4.332031 19.890625 4.25 19.832031 4.164062 19.777344 C 4.121094 19.699219 4.074219 19.628906 4.039062 19.550781 C 3.78125 19.332031 4.203125 19.859375 3.769531 19.5 C 3.460938 19.242188 3.714844 19.339844 3.636719 19.226562 C 3.523438 19.15625 3.414062 19.078125 3.308594 18.996094 C 3.175781 18.882812 3.0625 18.753906 2.976562 18.601562 C 3.058594 18.683594 3.109375 18.765625 3.1875 18.84375 Z M 1.046875 15.304688 C 1.066406 15.339844 1.097656 15.390625 1.121094 15.445312 C 1.148438 15.484375 1.164062 15.53125 1.164062 15.578125 C 1.0625 15.519531 1.070312 15.441406 1.046875 15.304688 Z M 0.644531 9.027344 C 0.640625 9.117188 0.613281 9.199219 0.570312 9.277344 C 0.585938 9.191406 0.609375 9.109375 0.644531 9.027344 Z M 14.933594 1.101562 L 14.925781 1.101562 C 14.75 1.023438 14.8125 1.050781 14.933594 1.105469 Z M 15.296875 1.261719 C 15.339844 1.269531 15.339844 1.261719 15.324219 1.246094 C 15.253906 1.234375 15.183594 1.210938 15.117188 1.175781 C 15.167969 1.226562 15.230469 1.253906 15.296875 1.265625 Z M 13.9375 22.679688 L 13.855469 22.679688 C 14.023438 22.625 13.980469 22.652344 13.9375 22.679688 Z M 13.9375 22.679688 " fill-opacity="1" fill-rule="nonzero"/></g><path fill="#231f20" d="M 0.570312 9.757812 C 0.5625 9.773438 0.546875 9.78125 0.53125 9.785156 C 0.535156 9.820312 0.546875 9.820312 0.570312 9.757812 Z M 0.570312 9.757812 " fill-opacity="1" fill-rule="nonzero"/><path fill="#231f20" d="M 5.148438 20.523438 L 5.160156 20.53125 C 5.164062 20.53125 5.171875 20.53125 5.175781 20.53125 Z M 5.148438 20.523438 " fill-opacity="1" fill-rule="nonzero"/><path fill="#231f20" d="M 9.355469 1.203125 C 9.304688 1.207031 9.253906 1.207031 9.203125 1.199219 C 9.199219 1.214844 9.238281 1.222656 9.355469 1.203125 Z M 9.355469 1.203125 " fill-opacity="1" fill-rule="nonzero"/><path fill="#231f20" d="M 17.230469 2.097656 C 17.160156 2.054688 17.082031 2.019531 17.003906 1.980469 C 17.070312 2.019531 17.132812 2.0625 17.1875 2.117188 C 17.195312 2.101562 17.164062 2.058594 17.230469 2.097656 Z M 17.230469 2.097656 " fill-opacity="1" fill-rule="nonzero"/><path fill="#231f20" d="M 18.734375 3.714844 C 18.765625 3.734375 18.792969 3.765625 18.820312 3.785156 L 18.835938 3.757812 C 18.722656 3.652344 18.628906 3.597656 18.734375 3.714844 Z M 18.734375 3.714844 " fill-opacity="1" fill-rule="nonzero"/><path fill="#231f20" d="M 17.320312 2.398438 C 17.3125 2.425781 17.34375 2.457031 17.398438 2.492188 C 17.425781 2.511719 17.457031 2.527344 17.492188 2.546875 L 17.597656 2.617188 L 17.574219 2.597656 C 17.617188 2.582031 17.59375 2.550781 17.542969 2.511719 C 17.46875 2.46875 17.394531 2.433594 17.320312 2.398438 Z M 17.320312 2.398438 " fill-opacity="1" fill-rule="nonzero"/><path fill="#231f20" d="M 17.632812 2.636719 C 17.679688 2.664062 17.726562 2.695312 17.765625 2.730469 C 17.800781 2.714844 17.714844 2.6875 17.632812 2.636719 Z M 17.632812 2.636719 " fill-opacity="1" fill-rule="nonzero"/><path fill="#231f20" d="M 15.777344 1.421875 C 15.847656 1.46875 15.851562 1.382812 15.886719 1.421875 C 15.945312 1.410156 15.808594 1.371094 15.714844 1.355469 C 15.667969 1.34375 15.628906 1.34375 15.628906 1.355469 C 15.628906 1.363281 15.667969 1.382812 15.777344 1.421875 Z M 15.777344 1.421875 " fill-opacity="1" fill-rule="nonzero"/><path fill="#231f20" d="M 17.34375 2.617188 L 17.328125 2.53125 L 17.214844 2.523438 Z M 17.34375 2.617188 " fill-opacity="1" fill-rule="nonzero"/><path fill="#231f20" d="M 16.179688 1.898438 L 16.417969 2.039062 C 16.417969 2.027344 16.453125 2.039062 16.496094 2.050781 C 16.34375 1.972656 16.183594 1.875 16.179688 1.898438 Z M 16.179688 1.898438 " fill-opacity="1" fill-rule="nonzero"/><path fill="#231f20" d="M 16.496094 2.050781 C 16.558594 2.089844 16.625 2.125 16.695312 2.152344 C 16.632812 2.117188 16.566406 2.082031 16.496094 2.050781 Z M 16.496094 2.050781 " fill-opacity="1" fill-rule="nonzero"/><path fill="#231f20" d="M 17.015625 2.433594 L 16.953125 2.378906 L 16.785156 2.277344 C 16.859375 2.328125 16.941406 2.375 17.015625 2.433594 Z M 17.015625 2.433594 " fill-opacity="1" fill-rule="nonzero"/><g clip-path="url(#5d84ec7258)"><path fill="#231f20" d="M 13.359375 0.933594 L 13.054688 0.898438 C 13.019531 0.914062 13.101562 0.941406 13.210938 0.953125 C 13.285156 0.949219 13.398438 0.964844 13.359375 0.933594 Z M 13.359375 0.933594 " fill-opacity="1" fill-rule="nonzero"/></g><path fill="#231f20" d="M 14.203125 1.3125 C 14.160156 1.292969 14.121094 1.265625 14.089844 1.226562 L 14.058594 1.304688 Z M 14.203125 1.3125 " fill-opacity="1" fill-rule="nonzero"/><path fill="#231f20" d="M 13.351562 1.128906 C 13.316406 1.144531 12.914062 1.117188 13.289062 1.175781 C 13.320312 1.160156 13.617188 1.199219 13.351562 1.128906 Z M 13.351562 1.128906 " fill-opacity="1" fill-rule="nonzero"/><g clip-path="url(#7a58e7fc30)"><path fill="#231f20" d="M 8.859375 1.078125 L 8.933594 1.058594 L 8.898438 0.933594 Z M 8.859375 1.078125 " fill-opacity="1" fill-rule="nonzero"/></g><path fill="#231f20" d="M 5.363281 2.871094 C 5.671875 2.710938 5.386719 2.753906 5.675781 2.625 C 5.730469 2.550781 5.441406 2.730469 5.5 2.664062 C 5.335938 2.804688 5.234375 2.851562 5.363281 2.871094 Z M 5.363281 2.871094 " fill-opacity="1" fill-rule="nonzero"/><path fill="#231f20" d="M 5.496094 2.664062 C 5.523438 2.640625 5.550781 2.617188 5.578125 2.589844 C 5.550781 2.613281 5.523438 2.636719 5.496094 2.664062 Z M 5.496094 2.664062 " fill-opacity="1" fill-rule="nonzero"/><g clip-path="url(#c5beba43f8)"><path fill="#231f20" d="M 22.589844 12.417969 C 22.605469 12.34375 22.613281 12.265625 22.625 12.1875 L 22.578125 12.335938 C 22.582031 12.363281 22.585938 12.390625 22.589844 12.417969 Z M 22.589844 12.417969 " fill-opacity="1" fill-rule="nonzero"/></g><g clip-path="url(#28826a5a5d)"><path fill="#231f20" d="M 22.507812 11.96875 L 22.59375 11.914062 L 22.519531 11.773438 C 22.527344 11.839844 22.523438 11.902344 22.507812 11.96875 Z M 22.507812 11.96875 " fill-opacity="1" fill-rule="nonzero"/></g><path fill="#231f20" d="M 1.019531 14.667969 L 0.996094 14.65625 C 0.992188 14.722656 1 14.785156 1.023438 14.847656 Z M 1.019531 14.667969 " fill-opacity="1" fill-rule="nonzero"/><path fill="#231f20" d="M 2.183594 17.40625 L 2.160156 17.363281 L 2.148438 17.484375 Z M 2.183594 17.40625 " fill-opacity="1" fill-rule="nonzero"/><path fill="#231f20" d="M 3.839844 19.289062 C 3.765625 19.21875 3.671875 19.140625 3.601562 19.066406 C 3.765625 19.21875 3.792969 19.375 3.839844 19.289062 Z M 3.839844 19.289062 " fill-opacity="1" fill-rule="nonzero"/><g clip-path="url(#fdc10a145e)"><path fill="#000000" d="M 9.835938 7.113281 C 9.460938 7.113281 9.085938 7.054688 8.773438 7.21875 C 8.519531 7.351562 8.039062 7.339844 7.746094 7.339844 C 7.609375 7.339844 7.875 7.660156 7.871094 7.769531 C 7.859375 8.082031 8.484375 8.148438 8.671875 8.230469 C 8.964844 8.355469 8.84375 8.558594 8.867188 8.816406 C 8.9375 9.507812 8.683594 10.003906 8.445312 10.617188 C 8.375 10.804688 8.230469 11.066406 8.25 11.273438 C 8.28125 11.648438 7.703125 11.214844 7.535156 11.152344 C 7.277344 11.0625 6.792969 10.929688 6.519531 11.046875 C 6.167969 11.191406 6.3125 11.507812 6.496094 11.71875 C 6.851562 12.117188 6.542969 12.429688 6.648438 12.847656 C 6.6875 12.996094 7.339844 13.6875 7.441406 13.59375 C 7.785156 13.296875 7.320312 13.148438 7.199219 12.921875 C 7.144531 12.816406 7.066406 11.800781 7.089844 11.804688 C 7.191406 11.8125 7.417969 11.992188 7.515625 12.039062 C 7.800781 12.179688 8.082031 12.332031 8.335938 12.523438 C 8.886719 12.769531 9.453125 12.992188 10.03125 13.144531 C 10.828125 13.355469 11.566406 13.445312 12.324219 13.804688 C 12.761719 14.011719 12.683594 14.460938 13.011719 14.796875 C 13.335938 15.128906 13.808594 15.339844 14.183594 15.609375 C 14.484375 15.828125 14.753906 16.171875 14.921875 16.503906 C 15.117188 16.890625 15.078125 17.40625 15.144531 17.828125 C 15.191406 18.117188 15.546875 18.335938 15.714844 18.5625 C 16.085938 19.058594 16.03125 18.226562 15.882812 18.164062 C 15.597656 18.042969 15.511719 17.460938 15.496094 17.175781 C 15.46875 16.714844 15.652344 16.355469 15.328125 15.996094 C 14.726562 15.328125 14.226562 14.542969 14.691406 13.601562 C 14.882812 13.210938 14.378906 12.859375 14.886719 12.757812 C 15.117188 12.710938 15.378906 12.757812 15.542969 12.546875 C 15.746094 12.285156 15.605469 11.945312 15.417969 11.71875 C 15.394531 11.683594 15.367188 11.65625 15.332031 11.636719 C 15.363281 11.636719 15.328125 12.09375 15.246094 12.152344 C 15.058594 12.28125 14.765625 12.507812 14.527344 12.515625 C 14.324219 12.523438 13.984375 12.292969 13.847656 12.15625 C 13.75 12.054688 13.402344 12.019531 13.261719 11.988281 C 12.921875 11.917969 12.65625 11.855469 12.328125 11.71875 C 11.910156 11.546875 11.5 11.34375 11.136719 11.078125 C 10.25 10.433594 10.089844 9.316406 10.203125 8.269531 C 10.226562 8.042969 10.125 7.691406 10.253906 7.496094 C 10.285156 7.453125 10.421875 7.464844 10.476562 7.417969 C 10.542969 7.355469 10.695312 7.128906 10.722656 7.035156 C 10.832031 6.65625 10.230469 7.144531 10.320312 7.140625 C 10.1875 7.148438 10.46875 6.328125 10.484375 6.296875 C 10.515625 6.230469 10.953125 5.445312 10.6875 5.453125 C 10.523438 5.460938 10.605469 5.945312 10.410156 5.90625 C 10.195312 5.863281 9.890625 5.289062 9.984375 5.074219 C 10.148438 4.699219 9.824219 4.617188 9.777344 4.945312 C 9.769531 5.007812 9.925781 5.472656 9.683594 5.40625 C 9.433594 5.332031 9.46875 4.253906 9.347656 4.265625 C 9.136719 4.285156 9.320312 5.238281 9.257812 5.359375 C 9.238281 5.398438 8.933594 5.042969 8.914062 4.960938 C 8.828125 4.585938 8.785156 4.722656 8.683594 4.960938 C 8.546875 5.277344 9.59375 5.832031 9.785156 5.945312 C 9.933594 6.03125 10.058594 6.109375 10.109375 6.289062 C 10.15625 6.441406 10.210938 6.65625 10.105469 6.800781 C 10.03125 6.90625 9.835938 6.964844 9.835938 7.113281 " fill-opacity="1" fill-rule="nonzero"/></g></svg>