<svg xmlns="http://www.w3.org/2000/svg" xmlns:xlink="http://www.w3.org/1999/xlink" width="500" zoomAndPan="magnify" viewBox="0 0 375 167.249994" height="223" preserveAspectRatio="xMidYMid meet" version="1.0"><defs><g/><clipPath id="3804a923c9"><path d="M 1 74.730469 L 94.914062 74.730469 L 94.914062 97.128906 L 1 97.128906 Z M 1 74.730469 " clip-rule="nonzero"/></clipPath><clipPath id="71e8afe2e3"><path d="M 269 68 L 365 68 L 365 84 L 269 84 Z M 269 68 " clip-rule="nonzero"/></clipPath><clipPath id="a09f197b2c"><path d="M 271.191406 61.523438 L 364.960938 69.128906 L 363.148438 91.457031 L 269.378906 83.847656 Z M 271.191406 61.523438 " clip-rule="nonzero"/></clipPath><clipPath id="9929d23a6a"><path d="M 363.277344 91.445312 L 269.507812 83.835938 L 271.320312 61.507812 L 365.089844 69.117188 Z M 363.277344 91.445312 " clip-rule="nonzero"/></clipPath><clipPath id="d6d8da6eaf"><path d="M 363.277344 91.445312 L 269.507812 83.835938 L 271.320312 61.507812 L 365.089844 69.117188 Z M 363.277344 91.445312 " clip-rule="nonzero"/></clipPath></defs><g clip-path="url(#3804a923c9)"><path fill="#000000" d="M 4.039062 96.3125 C 4.269531 95.773438 4.179688 95.117188 3.796875 94.71875 C 3.761719 94.679688 3.722656 94.628906 3.679688 94.597656 C 3.605469 94.554688 3.53125 94.488281 3.449219 94.417969 C 3.449219 94.417969 3.441406 94.410156 3.441406 94.402344 C 3.433594 94.402344 3.433594 94.402344 3.433594 94.402344 C 3.097656 94.082031 2.773438 93.574219 2.574219 93.191406 C 2.566406 92.964844 2.582031 92.710938 2.617188 92.421875 C 2.773438 90.929688 3.984375 89.378906 6.25 87.746094 C 7.527344 86.796875 9.132812 85.890625 11.074219 85.027344 C 13.089844 84.160156 15.527344 83.402344 18.378906 82.773438 C 24.566406 81.457031 30.535156 81.136719 36.292969 81.808594 C 41.972656 82.492188 47.796875 83.121094 53.789062 83.6875 C 57.070312 84.0625 60.386719 84.273438 63.71875 84.316406 C 67.050781 84.363281 70.5625 84.144531 74.238281 83.667969 C 82.238281 82.632812 88.167969 80.769531 92.015625 78.074219 C 92.890625 77.441406 93.683594 76.890625 94.417969 76.398438 C 94.492188 76.121094 94.570312 75.847656 94.648438 75.574219 C 94.613281 75.292969 94.574219 75.011719 94.535156 74.730469 C 93.628906 75.363281 92.597656 76.074219 91.394531 76.898438 C 87.453125 79.519531 81.730469 81.324219 74.199219 82.304688 C 67.804688 83.164062 61.707031 83.171875 55.941406 82.332031 C 50.09375 81.503906 44.21875 80.878906 38.335938 80.460938 C 35.144531 80.242188 31.886719 80.183594 28.570312 80.304688 C 25.261719 80.417969 21.863281 80.875 18.375 81.652344 C 14.96875 82.429688 12.136719 83.3125 9.886719 84.289062 C 7.726562 85.335938 6.019531 86.375 4.746094 87.410156 C 2.296875 89.46875 1.117188 91.386719 1.230469 93.167969 L 1.296875 93.777344 C 1.3125 93.941406 1.332031 94.089844 1.363281 94.230469 C 1.386719 94.585938 1.386719 94.945312 1.347656 95.257812 C 1.328125 95.484375 1.339844 95.714844 1.363281 95.941406 C 1.421875 96.5 2.011719 97.039062 2.65625 97.121094 " fill-opacity="1" fill-rule="nonzero"/></g><g fill="#000000" fill-opacity="1"><g transform="translate(73.937144, 99.027296)"><g><path d="M 52.796875 -6.984375 C 53.441406 -9.859375 53.945312 -12.347656 54.3125 -14.453125 C 54.6875 -16.566406 55 -18.515625 55.25 -20.296875 C 55.5 -22.085938 55.769531 -23.898438 56.0625 -25.734375 C 50.707031 -19.628906 45.9375 -15.644531 41.75 -13.78125 C 37.5625 -11.925781 33.984375 -11.671875 31.015625 -13.015625 C 29.273438 -13.804688 27.769531 -15.242188 26.5 -17.328125 C 25.238281 -19.410156 24.4375 -22.269531 24.09375 -25.90625 C 23.75 -29.550781 24.070312 -34.050781 25.0625 -39.40625 C 19.113281 -40.25 14.28125 -41.523438 10.5625 -43.234375 C 6.84375 -44.953125 4.085938 -46.890625 2.296875 -49.046875 C 0.515625 -51.203125 -0.394531 -53.414062 -0.4375 -55.6875 C -0.488281 -57.96875 0.160156 -60.160156 1.515625 -62.265625 C 2.878906 -64.378906 4.835938 -66.21875 7.390625 -67.78125 C 9.953125 -69.34375 12.96875 -70.445312 16.4375 -71.09375 C 17.375 -71.039062 17.878906 -70.800781 17.953125 -70.375 C 18.023438 -69.957031 17.863281 -69.632812 17.46875 -69.40625 C 17.070312 -69.1875 16.628906 -69.300781 16.140625 -69.75 C 13.015625 -69.15625 10.273438 -68.148438 7.921875 -66.734375 C 5.566406 -65.328125 3.769531 -63.664062 2.53125 -61.75 C 1.289062 -59.84375 0.734375 -57.835938 0.859375 -55.734375 C 0.984375 -53.628906 1.898438 -51.582031 3.609375 -49.59375 C 5.316406 -47.613281 7.953125 -45.828125 11.515625 -44.234375 C 15.085938 -42.648438 19.726562 -41.4375 25.4375 -40.59375 C 27.269531 -48.1875 29.769531 -54.335938 32.9375 -59.046875 C 36.113281 -63.753906 39.617188 -67.125 43.453125 -69.15625 C 47.296875 -71.1875 51.128906 -71.976562 54.953125 -71.53125 C 58.171875 -71.132812 60.644531 -70.21875 62.375 -68.78125 C 64.113281 -67.34375 65.179688 -65.582031 65.578125 -63.5 C 65.984375 -61.414062 65.773438 -59.179688 64.953125 -56.796875 C 64.128906 -54.421875 62.726562 -52.09375 60.75 -49.8125 C 58.769531 -47.539062 56.289062 -45.523438 53.3125 -43.765625 C 50.34375 -42.003906 46.910156 -40.664062 43.015625 -39.75 C 39.128906 -38.832031 34.828125 -38.570312 30.109375 -38.96875 C 29.472656 -36.039062 28.992188 -33.175781 28.671875 -30.375 C 28.347656 -27.570312 28.234375 -25.003906 28.328125 -22.671875 C 28.429688 -20.347656 28.800781 -18.40625 29.4375 -16.84375 C 30.082031 -15.28125 31.050781 -14.273438 32.34375 -13.828125 C 35.269531 -12.785156 38.988281 -13.585938 43.5 -16.234375 C 48.007812 -18.890625 52.671875 -23.296875 57.484375 -29.453125 C 58.078125 -30.285156 58.695312 -30.726562 59.34375 -30.78125 C 59.988281 -30.832031 60.53125 -30.671875 60.96875 -30.296875 C 61.414062 -29.929688 61.59375 -29.472656 61.5 -28.921875 C 61.195312 -26.941406 60.894531 -24.984375 60.59375 -23.046875 C 60.300781 -21.117188 59.921875 -18.925781 59.453125 -16.46875 C 58.984375 -14.019531 58.328125 -10.957031 57.484375 -7.28125 C 60.753906 -7.238281 64.050781 -7.632812 67.375 -8.46875 C 70.695312 -9.3125 73.742188 -10.515625 76.515625 -12.078125 C 79.296875 -13.640625 81.476562 -15.4375 83.0625 -17.46875 C 83.257812 -17.863281 83.566406 -18.035156 83.984375 -17.984375 C 84.410156 -17.941406 84.570312 -17.769531 84.46875 -17.46875 C 83.082031 -15.4375 81.050781 -13.550781 78.375 -11.8125 C 75.695312 -10.082031 72.5625 -8.679688 68.96875 -7.609375 C 65.375 -6.546875 61.445312 -5.96875 57.1875 -5.875 C 56.09375 0.269531 54.453125 5.484375 52.265625 9.765625 C 50.085938 14.054688 47.625 17.503906 44.875 20.109375 C 42.125 22.710938 39.273438 24.582031 36.328125 25.71875 C 33.378906 26.863281 30.539062 27.320312 27.8125 27.09375 C 25.082031 26.875 22.675781 26.054688 20.59375 24.640625 C 18.507812 23.234375 16.972656 21.328125 15.984375 18.921875 C 14.992188 16.515625 14.75 13.703125 15.25 10.484375 C 15.789062 7.210938 17.523438 4.222656 20.453125 1.515625 C 23.378906 -1.179688 27.53125 -3.320312 32.90625 -4.90625 C 38.28125 -6.488281 44.910156 -7.179688 52.796875 -6.984375 Z M 52.421875 -5.796875 C 45.628906 -5.898438 39.628906 -5.304688 34.421875 -4.015625 C 29.222656 -2.722656 25.070312 -0.851562 21.96875 1.59375 C 18.875 4.050781 17.03125 7.015625 16.4375 10.484375 C 15.9375 13.460938 16.09375 16.050781 16.90625 18.25 C 17.726562 20.457031 19.003906 22.191406 20.734375 23.453125 C 22.472656 24.722656 24.507812 25.441406 26.84375 25.609375 C 29.175781 25.785156 31.601562 25.316406 34.125 24.203125 C 36.65625 23.085938 39.109375 21.289062 41.484375 18.8125 C 43.867188 16.332031 46.023438 13.0625 47.953125 9 C 49.890625 4.9375 51.378906 0.00390625 52.421875 -5.796875 Z M 30.34375 -40.234375 C 34.90625 -39.835938 39.066406 -40.070312 42.828125 -40.9375 C 46.597656 -41.800781 49.921875 -43.0625 52.796875 -44.71875 C 55.671875 -46.382812 58.035156 -48.296875 59.890625 -50.453125 C 61.753906 -52.609375 63.082031 -54.800781 63.875 -57.03125 C 64.664062 -59.257812 64.875 -61.351562 64.5 -63.3125 C 64.132812 -65.269531 63.144531 -66.90625 61.53125 -68.21875 C 59.914062 -69.53125 57.625 -70.3125 54.65625 -70.5625 C 52.625 -70.757812 50.503906 -70.398438 48.296875 -69.484375 C 46.085938 -68.566406 43.890625 -66.957031 41.703125 -64.65625 C 39.523438 -62.351562 37.46875 -59.203125 35.53125 -55.203125 C 33.601562 -51.210938 31.875 -46.222656 30.34375 -40.234375 Z M 30.34375 -40.234375 "/></g></g></g><g fill="#000000" fill-opacity="1"><g transform="translate(157.060663, 99.027296)"><g><path d="M 50.046875 -70.046875 C 46.617188 -69.941406 43.394531 -68.910156 40.375 -66.953125 C 37.351562 -65.003906 34.710938 -62.429688 32.453125 -59.234375 C 30.203125 -56.035156 28.457031 -52.488281 27.21875 -48.59375 C 25.976562 -44.695312 25.429688 -40.769531 25.578125 -36.8125 C 29.597656 -34.726562 32.734375 -32.59375 34.984375 -30.40625 C 37.242188 -28.226562 38.789062 -26.125 39.625 -24.09375 C 40.46875 -22.0625 40.816406 -20.226562 40.671875 -18.59375 C 40.523438 -16.957031 40.039062 -15.617188 39.21875 -14.578125 C 38.40625 -13.535156 37.453125 -12.941406 36.359375 -12.796875 C 34.472656 -12.546875 32.597656 -13.203125 30.734375 -14.765625 C 28.878906 -16.328125 27.304688 -18.863281 26.015625 -22.375 C 24.734375 -25.894531 24.039062 -30.484375 23.9375 -36.140625 C 20.070312 -37.671875 16.664062 -38.347656 13.71875 -38.171875 C 10.769531 -38.003906 8.335938 -37.238281 6.421875 -35.875 C 4.515625 -34.507812 3.140625 -32.785156 2.296875 -30.703125 C 1.460938 -28.628906 1.226562 -26.425781 1.59375 -24.09375 C 1.96875 -21.757812 2.972656 -19.550781 4.609375 -17.46875 L 2.671875 -17.46875 C 1.140625 -19.945312 0.3125 -22.460938 0.1875 -25.015625 C 0.0625 -27.566406 0.53125 -29.910156 1.59375 -32.046875 C 2.664062 -34.179688 4.265625 -35.914062 6.390625 -37.25 C 8.523438 -38.59375 11.09375 -39.3125 14.09375 -39.40625 C 17.09375 -39.507812 20.425781 -38.769531 24.09375 -37.1875 C 24.09375 -41.644531 24.785156 -45.894531 26.171875 -49.9375 C 27.554688 -53.976562 29.476562 -57.570312 31.9375 -60.71875 C 34.394531 -63.863281 37.195312 -66.363281 40.34375 -68.21875 C 43.488281 -70.082031 46.820312 -71.0625 50.34375 -71.15625 C 52.96875 -71.257812 55.179688 -70.613281 56.984375 -69.21875 C 58.796875 -67.832031 60.269531 -65.925781 61.40625 -63.5 C 62.550781 -61.070312 63.394531 -58.285156 63.9375 -55.140625 C 64.488281 -51.992188 64.75 -48.671875 64.71875 -45.171875 C 64.695312 -41.679688 64.46875 -38.222656 64.03125 -34.796875 C 65.113281 -40.253906 66.546875 -45.320312 68.328125 -50 C 70.117188 -54.6875 72.316406 -58.710938 74.921875 -62.078125 C 77.523438 -65.453125 80.570312 -67.992188 84.0625 -69.703125 C 87.5625 -71.421875 91.566406 -72.03125 96.078125 -71.53125 C 98.953125 -71.238281 101.191406 -70.1875 102.796875 -68.375 C 104.410156 -66.5625 105.21875 -64.226562 105.21875 -61.375 C 105.21875 -58.53125 104.285156 -55.332031 102.421875 -51.78125 C 100.566406 -48.238281 97.644531 -44.519531 93.65625 -40.625 C 89.664062 -36.738281 84.421875 -32.890625 77.921875 -29.078125 C 82.835938 -31.898438 87.203125 -33.535156 91.015625 -33.984375 C 94.828125 -34.429688 98.070312 -33.957031 100.75 -32.5625 C 103.425781 -31.175781 105.546875 -29.054688 107.109375 -26.203125 C 108.671875 -23.359375 109.660156 -20.015625 110.078125 -16.171875 C 110.503906 -12.328125 110.375 -8.203125 109.6875 -3.796875 C 110.96875 -3.796875 112.632812 -3.914062 114.6875 -4.15625 C 116.75 -4.40625 119.003906 -4.960938 121.453125 -5.828125 C 123.910156 -6.703125 126.390625 -8.066406 128.890625 -9.921875 C 131.398438 -11.785156 133.769531 -14.328125 136 -17.546875 C 136.144531 -17.691406 136.390625 -17.765625 136.734375 -17.765625 C 137.085938 -17.765625 137.265625 -17.664062 137.265625 -17.46875 C 135.234375 -14.25 133.003906 -11.671875 130.578125 -9.734375 C 128.148438 -7.804688 125.679688 -6.332031 123.171875 -5.3125 C 120.671875 -4.300781 118.242188 -3.617188 115.890625 -3.265625 C 113.535156 -2.921875 111.414062 -2.722656 109.53125 -2.671875 C 108.195312 3.566406 106.25 8.707031 103.6875 12.75 C 101.132812 16.789062 98.304688 19.851562 95.203125 21.9375 C 92.109375 24.019531 88.988281 25.269531 85.84375 25.6875 C 82.695312 26.113281 79.835938 25.832031 77.265625 24.84375 C 75.179688 23.75 73.679688 22.269531 72.765625 20.40625 C 71.847656 18.550781 71.507812 16.53125 71.75 14.34375 C 72 12.164062 72.878906 9.984375 74.390625 7.796875 C 75.910156 5.617188 78.066406 3.640625 80.859375 1.859375 C 83.660156 0.078125 87.128906 -1.316406 91.265625 -2.328125 C 95.410156 -3.347656 100.257812 -3.785156 105.8125 -3.640625 C 106.40625 -6.617188 106.664062 -9.609375 106.59375 -12.609375 C 106.519531 -15.609375 106.070312 -18.421875 105.25 -21.046875 C 104.4375 -23.671875 103.234375 -25.925781 101.640625 -27.8125 C 100.054688 -29.695312 98.070312 -31.019531 95.6875 -31.78125 C 93.3125 -32.550781 90.5 -32.5625 87.25 -31.8125 C 84.007812 -31.070312 80.332031 -29.363281 76.21875 -26.6875 C 75.875 -26.488281 75.550781 -26.488281 75.25 -26.6875 C 74.957031 -26.894531 74.8125 -27.195312 74.8125 -27.59375 C 74.8125 -27.988281 75.054688 -28.332031 75.546875 -28.625 C 82.242188 -34.175781 87.597656 -39.117188 91.609375 -43.453125 C 95.628906 -47.796875 98.554688 -51.578125 100.390625 -54.796875 C 102.222656 -58.023438 103.140625 -60.726562 103.140625 -62.90625 C 103.140625 -65.09375 102.441406 -66.789062 101.046875 -68 C 99.660156 -69.21875 97.78125 -70 95.40625 -70.34375 C 87.46875 -70.988281 80.910156 -67.800781 75.734375 -60.78125 C 70.554688 -53.769531 66.703125 -43.445312 64.171875 -29.8125 C 62.335938 -19.851562 60.363281 -11.398438 58.25 -4.453125 C 56.144531 2.484375 53.925781 8.117188 51.59375 12.453125 C 49.269531 16.796875 46.804688 20.046875 44.203125 22.203125 C 41.597656 24.359375 38.859375 25.632812 35.984375 26.03125 C 32.710938 26.46875 29.75 26.203125 27.09375 25.234375 C 24.445312 24.273438 22.179688 22.835938 20.296875 20.921875 C 18.410156 19.015625 17.007812 16.8125 16.09375 14.3125 C 15.175781 11.8125 14.804688 9.234375 14.984375 6.578125 C 15.160156 3.929688 15.953125 1.378906 17.359375 -1.078125 C 18.773438 -3.535156 20.882812 -5.679688 23.6875 -7.515625 C 26.488281 -9.347656 30.066406 -10.632812 34.421875 -11.375 C 35.367188 -11.320312 35.878906 -11.082031 35.953125 -10.65625 C 36.023438 -10.238281 35.863281 -9.90625 35.46875 -9.65625 C 35.070312 -9.414062 34.625 -9.539062 34.125 -10.03125 C 30.113281 -9.238281 26.816406 -7.972656 24.234375 -6.234375 C 21.660156 -4.503906 19.726562 -2.488281 18.4375 -0.1875 C 17.144531 2.113281 16.4375 4.503906 16.3125 6.984375 C 16.195312 9.460938 16.570312 11.84375 17.4375 14.125 C 18.300781 16.40625 19.613281 18.425781 21.375 20.1875 C 23.132812 21.945312 25.253906 23.222656 27.734375 24.015625 C 30.210938 24.804688 32.960938 24.957031 35.984375 24.46875 C 37.773438 24.164062 39.597656 22.863281 41.453125 20.5625 C 43.316406 18.257812 45.148438 15.222656 46.953125 11.453125 C 48.765625 7.679688 50.460938 3.441406 52.046875 -1.265625 C 53.640625 -5.972656 55.054688 -10.914062 56.296875 -16.09375 C 57.535156 -21.28125 58.523438 -26.4375 59.265625 -31.5625 C 60.003906 -36.695312 60.4375 -41.566406 60.5625 -46.171875 C 60.6875 -50.785156 60.414062 -54.890625 59.75 -58.484375 C 59.082031 -62.078125 57.953125 -64.898438 56.359375 -66.953125 C 54.773438 -69.015625 52.671875 -70.046875 50.046875 -70.046875 Z M 105.515625 -2.53125 C 100.066406 -2.675781 95.332031 -2.253906 91.3125 -1.265625 C 87.300781 -0.273438 83.992188 1.070312 81.390625 2.78125 C 78.785156 4.5 76.785156 6.394531 75.390625 8.46875 C 74.003906 10.550781 73.210938 12.597656 73.015625 14.609375 C 72.816406 16.617188 73.140625 18.441406 73.984375 20.078125 C 74.828125 21.710938 76.117188 22.925781 77.859375 23.71875 C 81.078125 24.863281 84.171875 24.898438 87.140625 23.828125 C 90.117188 22.765625 92.847656 20.90625 95.328125 18.25 C 97.804688 15.601562 99.925781 12.46875 101.6875 8.84375 C 103.445312 5.226562 104.722656 1.4375 105.515625 -2.53125 Z M 36.8125 -13.828125 C 37.5 -13.972656 38.101562 -14.515625 38.625 -15.453125 C 39.144531 -16.398438 39.40625 -17.601562 39.40625 -19.0625 C 39.40625 -20.53125 38.972656 -22.164062 38.109375 -23.96875 C 37.242188 -25.78125 35.789062 -27.675781 33.75 -29.65625 C 31.71875 -31.644531 28.921875 -33.609375 25.359375 -35.546875 C 25.609375 -30.785156 26.140625 -26.929688 26.953125 -23.984375 C 27.773438 -21.035156 28.753906 -18.78125 29.890625 -17.21875 C 31.035156 -15.65625 32.210938 -14.632812 33.421875 -14.15625 C 34.640625 -13.6875 35.769531 -13.578125 36.8125 -13.828125 Z M 36.8125 -13.828125 "/></g></g></g><g clip-path="url(#71e8afe2e3)"><g clip-path="url(#a09f197b2c)"><g clip-path="url(#9929d23a6a)"><g clip-path="url(#d6d8da6eaf)"><path fill="#000000" d="M 361.832031 69.671875 C 361.558594 70.191406 361.59375 70.855469 361.941406 71.28125 C 361.976562 71.320312 362.011719 71.375 362.050781 71.410156 C 362.125 71.460938 362.191406 71.535156 362.269531 71.609375 C 362.269531 71.609375 362.277344 71.617188 362.273438 71.625 C 362.28125 71.625 362.28125 71.625 362.28125 71.625 C 362.589844 71.972656 362.871094 72.503906 363.039062 72.902344 C 363.03125 73.128906 362.996094 73.378906 362.933594 73.667969 C 362.65625 75.140625 361.324219 76.585938 358.9375 78.03125 C 357.585938 78.875 355.914062 79.648438 353.90625 80.351562 C 351.828125 81.054688 349.339844 81.609375 346.441406 82.007812 C 340.171875 82.820312 334.195312 82.65625 328.507812 81.519531 C 322.90625 80.382812 317.148438 79.285156 311.222656 78.230469 C 307.984375 77.59375 304.695312 77.117188 301.378906 76.800781 C 298.0625 76.488281 294.542969 76.421875 290.84375 76.601562 C 282.785156 76.984375 276.722656 78.363281 272.667969 80.738281 C 271.746094 81.296875 270.910156 81.785156 270.136719 82.214844 C 270.042969 82.484375 269.941406 82.75 269.839844 83.015625 C 269.855469 83.296875 269.871094 83.582031 269.886719 83.867188 C 270.839844 83.308594 271.929688 82.683594 273.191406 81.960938 C 277.335938 79.667969 283.183594 78.332031 290.769531 77.960938 C 297.210938 77.621094 303.289062 78.105469 308.96875 79.410156 C 314.730469 80.710938 320.535156 81.804688 326.367188 82.699219 C 329.527344 83.171875 332.769531 83.496094 336.085938 83.644531 C 339.394531 83.800781 342.820312 83.621094 346.359375 83.125 C 349.816406 82.625 352.710938 81.972656 355.03125 81.183594 C 357.265625 80.316406 359.054688 79.417969 360.40625 78.488281 C 363.015625 76.632812 364.347656 74.820312 364.378906 73.035156 L 364.359375 72.425781 C 364.359375 72.257812 364.347656 72.109375 364.332031 71.964844 C 364.335938 71.609375 364.367188 71.253906 364.429688 70.941406 C 364.46875 70.71875 364.472656 70.488281 364.46875 70.261719 C 364.453125 69.695312 363.910156 69.113281 363.277344 68.976562 " fill-opacity="1" fill-rule="nonzero"/></g></g></g></g></svg>